<svg width="60" height="84" viewBox="0 0 60 84" fill="none" xmlns="http://www.w3.org/2000/svg">
<rect x="1" y="1" width="58" height="82" rx="29" stroke="#E0CCAC" stroke-width="2"/>
<path d="M29.9981 62C30.4002 61.9779 30.7162 61.8296 30.9151 61.6337L43.5859 49.2198C44.1404 48.6486 44.1181 47.7941 43.638 47.2694C43.1579 46.7447 42.2594 46.719 41.752 47.2156L31.3319 57.4096V23.3793C31.3319 22.6176 30.7348 22 29.9981 22C29.2615 22 28.6644 22.6176 28.6644 23.3793V57.4096L18.2443 47.2156C17.7369 46.7191 16.8556 46.7622 16.3583 47.2694C15.8439 47.7941 15.9029 48.7233 16.4103 49.2198L29.0811 61.6337C29.4049 61.9612 29.6802 61.9786 29.9981 62H29.9981Z" fill="#E0CCAC"/>
</svg>
