<svg width="24" height="24" viewBox="0 0 24 24" fill="none" xmlns="http://www.w3.org/2000/svg">
<path d="M15.3359 7.33615H21.6915V5.63666H15.3359V7.33615ZM16.8415 11.0444C16.4365 11.429 16.1811 11.95 16.0767 12.6074H21.0198C20.9676 11.9058 20.7108 11.3757 20.2564 11.0106C19.7964 10.6481 19.2305 10.4675 18.5532 10.4675C17.8194 10.4675 17.2465 10.6598 16.8415 11.0444ZM21.1313 8.76279C21.8975 9.07722 22.5283 9.57615 23.025 10.257C23.478 10.8573 23.7686 11.5537 23.9013 12.345C23.9789 12.8075 24.0099 13.478 23.9972 14.3498H16.0062C16.0541 15.3619 16.4323 16.0727 17.1548 16.4794C17.5922 16.7327 18.1186 16.86 18.7366 16.86C19.3872 16.86 19.9192 16.7054 20.327 16.3975C20.5513 16.2299 20.7489 15.9986 20.9182 15.7024H23.8463C23.7686 16.3 23.413 16.9094 22.7837 17.5279C21.8016 18.5089 20.4257 19 18.6576 19C17.1971 19 15.9088 18.5868 14.7954 17.7579C13.6764 16.9302 13.1205 15.5815 13.1205 13.7157C13.1205 11.9656 13.6242 10.6234 14.6303 9.68919C15.6393 8.75759 16.9445 8.28854 18.5518 8.28854C19.5071 8.28854 20.3665 8.44705 21.1313 8.76279ZM2.95626 12.6438V16.2858H6.5574C7.20087 16.2858 7.70322 16.2052 8.06023 16.0454C8.71075 15.7465 9.0353 15.18 9.0353 14.3407C9.0353 13.6287 8.72204 13.1414 8.09127 12.8751C7.7385 12.727 7.2432 12.649 6.6082 12.6438H2.95626ZM2.95626 7.37123V10.3843H6.56305C7.2051 10.3843 7.72862 10.2713 8.1322 10.0452C8.53295 9.81912 8.73474 9.41893 8.73474 8.84724C8.73474 8.20928 8.46945 7.78961 7.93887 7.58432C7.47885 7.44269 6.89466 7.37123 6.18487 7.37123H2.95626ZM11.0108 6.45522C11.4638 7.03601 11.691 7.72984 11.691 8.5393C11.691 9.37216 11.4638 10.0439 11.0052 10.5506C10.7484 10.8339 10.3716 11.0937 9.8735 11.3276C10.6299 11.5823 11.1999 11.9838 11.588 12.5334C11.9718 13.0817 12.1651 13.7495 12.1651 14.5343C12.1651 15.3438 11.945 16.0701 11.5033 16.7119C11.2239 17.1368 10.874 17.4954 10.4535 17.7865C9.98074 18.1204 9.42336 18.3477 8.77848 18.4725C8.13361 18.5959 7.43652 18.6557 6.68299 18.6557H0V5H7.167C8.97604 5.02469 10.2559 5.50933 11.0108 6.45522Z" fill="#E0CCAC"/>
</svg>
